<svg version="1.1" id="Layer_1" xmlns="http://www.w3.org/2000/svg" xmlns:xlink="http://www.w3.org/1999/xlink" x="0px" y="0px"
	 width="100%" viewBox="0 0 974 1080" enable-background="new 0 0 974 1080" xml:space="preserve">
<path fill="#0CA581" opacity="1.000000" stroke="none" 
	d="
M975.000000,570.000000 
	C975.000000,580.687561 975.000000,591.375122 974.654480,602.758423 
	C971.856445,632.365295 964.530457,660.038269 954.023621,687.048523 
	C936.557251,731.949402 908.670654,768.526184 868.934998,795.928101 
	C836.456116,818.325745 800.396240,831.773865 761.709717,838.487915 
	C758.193542,839.098145 756.837830,840.482727 755.829224,843.793457 
	C744.486145,881.026062 724.035278,912.496460 694.937378,938.258545 
	C649.624817,978.376160 595.481384,996.057983 535.681091,1000.264343 
	C524.801270,1000.498901 514.337708,1000.667114 503.632019,1000.525146 
	C487.888489,997.244385 472.072479,995.384644 456.943298,991.099792 
	C407.230988,977.020508 366.577637,948.772949 333.691010,909.201721 
	C330.416992,905.262268 327.728943,903.979736 322.520874,905.164490 
	C290.775116,912.385681 259.022705,911.683411 227.587341,903.333435 
	C157.662552,884.759705 106.942123,840.654175 72.295319,779.193726 
	C34.443207,712.047302 31.251230,640.550781 56.548817,567.843201 
	C57.745651,564.403381 57.404602,562.341797 54.924381,559.599731 
	C26.878206,528.592834 10.387791,492.095734 3.870258,450.941406 
	C2.922905,444.959442 1.957210,438.980408 1.000000,433.000000 
	C1.000000,421.645782 1.000000,410.291534 1.353606,398.251984 
	C5.153949,358.028259 15.892999,320.348877 35.505787,286.068909 
	C75.074600,216.908936 135.269577,176.403488 213.778351,163.157379 
	C217.063110,162.603165 218.589981,161.512924 219.578949,158.315399 
	C235.443100,107.023766 267.280121,68.149704 312.515198,39.971466 
	C344.554993,20.012924 379.821289,9.105773 417.028137,3.985085 
	C424.023193,3.022372 431.009613,1.996650 438.000000,1.000001 
	C448.354218,1.000000 458.708466,1.000000 469.754333,1.347484 
	C479.170685,2.970095 487.987335,3.802356 496.605225,5.591752 
	C555.386414,17.796932 602.676636,48.756451 640.703125,94.594147 
	C642.984131,97.343704 644.868896,98.256409 648.642334,97.361664 
	C694.825195,86.411034 739.615845,91.293129 782.860046,110.358131 
	C825.721863,129.254547 859.094727,159.663986 887.057007,196.743378 
	C912.505127,230.488907 928.261841,267.994476 933.322998,309.976868 
	C938.374878,351.882080 932.203918,392.295929 917.056824,431.476074 
	C915.792236,434.746948 916.192566,436.722168 918.595032,439.287415 
	C946.558594,469.145355 963.768921,504.429321 971.065002,544.594604 
	C972.596069,553.023254 973.699524,561.529480 975.000000,570.000000 
M697.992737,353.485046 
	C677.920593,340.676300 657.739929,328.033142 637.826233,314.982452 
	C629.084778,309.253601 620.907654,308.728271 611.698853,313.938599 
	C585.185608,328.939636 558.455017,343.556244 531.821594,358.345154 
	C530.776855,358.925262 529.852966,359.723022 528.568237,360.635773 
	C530.707275,361.970367 532.379761,363.041748 534.078552,364.069733 
	C610.570435,410.359467 687.047302,456.674164 763.583679,502.890198 
	C771.830872,507.870209 775.668884,514.701538 775.258911,524.367859 
	C774.277649,547.506348 773.605469,570.657776 772.755005,593.802002 
	C770.503357,655.077454 768.221313,716.351868 765.963318,777.627075 
	C765.893494,779.521362 765.954529,781.420532 765.954529,783.585876 
	C767.922852,783.231140 769.238586,783.054199 770.525391,782.753418 
	C805.930725,774.476807 836.739868,757.794250 862.367615,731.937256 
	C896.880127,697.116089 914.721375,654.063416 919.916443,606.264771 
	C927.257568,538.720520 902.801331,484.800079 845.092285,447.462860 
	C796.443359,415.987457 747.439575,385.060669 697.992737,353.485046 
M679.661865,146.059677 
	C660.442871,148.221878 642.101868,153.547852 624.957886,162.418900 
	C550.027588,201.191208 475.202820,240.167313 400.311676,279.015381 
	C392.065247,283.293030 388.204559,289.920135 388.065277,299.113342 
	C387.593353,330.262848 387.006134,361.410645 386.484344,392.559448 
	C386.469543,393.444275 386.695923,394.333160 386.861511,395.622101 
	C389.084991,394.462799 390.847046,393.593872 392.563141,392.642212 
	C469.989807,349.705170 547.460327,306.846893 624.776428,263.711670 
	C634.770142,258.136139 643.405884,258.169373 653.174683,264.311554 
	C717.158752,304.541748 781.338745,344.460297 845.455994,384.478729 
	C854.143188,389.900757 862.837097,395.311981 871.587708,400.765472 
	C872.035278,399.903107 872.309814,399.479492 872.482422,399.017761 
	C872.773193,398.239807 873.007446,397.440155 873.251526,396.645325 
	C882.888794,365.266052 884.146912,333.576630 877.471008,301.413330 
	C869.069275,260.935455 847.482361,228.031143 818.798035,199.447266 
	C780.684875,161.467453 735.320984,141.371796 679.661865,146.059677 
M409.904358,59.326252 
	C390.884460,63.096500 372.330994,68.450333 355.079254,77.405945 
	C300.745422,105.611420 268.795013,149.369003 263.849030,211.174484 
	C262.122406,232.750366 261.703094,254.431335 260.710571,276.065399 
	C257.816742,339.143311 254.971710,402.223511 252.008804,465.298157 
	C251.564758,474.750671 255.198029,481.542267 263.339050,486.405792 
	C289.495392,502.031982 315.536072,517.851624 341.628845,533.584290 
	C342.972748,534.394592 344.386169,535.089539 346.307983,536.131348 
	C346.771088,512.424438 347.256836,489.447174 347.661896,466.468506 
	C348.851318,398.990479 350.127075,331.513519 351.064880,264.031921 
	C351.225861,252.449524 355.584534,244.780045 365.991791,239.281738 
	C440.468414,199.934616 514.776245,160.267899 589.130371,120.689072 
	C590.510742,119.954308 591.801880,119.051834 593.484009,118.011597 
	C558.267944,79.727104 515.337341,58.560280 463.929504,54.973671 
	C446.037079,53.725357 428.351440,56.172432 409.904358,59.326252 
M375.614380,724.108276 
	C367.015625,728.853149 358.252563,733.327026 349.861938,738.415161 
	C340.504303,744.089661 331.918762,743.441772 322.775146,737.689331 
	C251.607925,692.917114 180.332428,648.316956 109.087311,603.668579 
	C107.464294,602.651428 105.804657,601.692810 103.880226,600.537659 
	C103.391937,601.906250 103.098000,602.655151 102.855515,603.420471 
	C91.639862,638.816467 91.056168,674.404480 100.611336,710.269409 
	C111.001274,749.267517 133.751465,780.481384 162.471863,807.662292 
	C217.355545,859.604004 289.433929,870.694092 354.234161,837.352051 
	C428.077362,799.357056 501.761597,761.053101 575.522278,722.897644 
	C583.171448,718.940796 587.151245,712.800171 587.313538,704.118347 
	C587.889771,673.299255 588.535706,642.481445 589.131897,611.662659 
	C589.161804,610.118652 588.973083,608.570374 588.846069,606.310242 
	C517.527039,645.733337 446.906860,684.770142 375.614380,724.108276 
M720.227966,609.762634 
	C721.414429,585.633606 722.510498,561.499634 723.831177,537.377930 
	C724.371765,527.504700 720.422302,520.539795 711.954956,515.514893 
	C692.625427,504.044006 673.464111,492.289642 654.228516,480.660400 
	C646.282593,475.856567 638.321350,471.078094 629.741089,465.911102 
	C629.583313,469.524261 629.393250,472.467407 629.335022,475.413208 
	C627.592102,563.712463 625.807434,652.010986 624.206726,740.312866 
	C624.028198,750.159973 620.183472,757.079956 611.464966,761.689636 
	C554.663025,791.721741 497.911774,821.849792 441.144257,851.947021 
	C421.451660,862.387695 401.759796,872.829895 381.905945,883.357178 
	C382.460785,884.128235 382.791321,884.703125 383.229065,885.179382 
	C417.733459,922.720581 460.423370,943.937927 511.281952,946.856628 
	C547.535889,948.937256 582.859619,942.392456 615.736755,926.731201 
	C673.040527,899.434021 707.123718,854.514954 711.556458,790.440308 
	C715.694946,730.618835 717.415039,670.629944 720.227966,609.762634 
M138.507385,558.990356 
	C205.387650,601.829773 272.283905,644.644226 339.126617,687.542114 
	C346.902863,692.532776 354.466034,692.971863 362.590027,688.445068 
	C388.181152,674.185364 413.857330,660.078308 439.498749,645.908875 
	C442.020905,644.515076 444.530396,643.098267 447.490692,641.443481 
	C445.485779,640.150391 444.123108,639.219666 442.712219,638.368958 
	C365.865326,592.033264 289.030273,545.677979 212.140808,499.413025 
	C203.872650,494.437988 200.166428,487.548706 200.554962,477.895264 
	C201.801254,446.930145 202.808624,415.955353 203.881958,384.983368 
	C205.693893,332.698730 207.491699,280.413574 209.271652,228.127808 
	C209.382187,224.880615 209.286011,221.626358 209.286011,218.312866 
	C208.577164,218.312866 208.072037,218.222092 207.610580,218.325775 
	C162.487564,228.462875 125.563087,251.648026 97.339073,288.298401 
	C77.880196,313.566864 66.516083,342.696564 59.476601,373.438293 
	C49.432529,417.301239 53.910088,459.541321 76.555138,499.050964 
	C91.268852,524.722534 112.728058,543.615234 138.507385,558.990356 
M564.269348,426.216827 
	C540.767883,412.019196 517.250610,397.847443 493.789520,383.583405 
	C491.472534,382.174713 489.655945,381.585205 486.993713,383.072357 
	C454.455170,401.249207 421.820587,419.254395 389.319153,437.496918 
	C387.578857,438.473755 385.774658,441.143188 385.729065,443.065704 
	C384.840240,480.530975 384.161072,518.001770 383.672150,555.474426 
	C383.648865,557.259460 385.344910,559.780762 386.965790,560.767944 
	C418.805389,580.160278 450.729492,599.414612 482.748627,618.508789 
	C484.290405,619.428162 487.281158,619.383972 488.893646,618.502136 
	C521.597046,600.616333 554.218201,582.579285 586.756287,564.394470 
	C588.356262,563.500305 589.984558,561.008606 590.028931,559.221802 
	C590.955078,521.924377 591.617615,484.620483 592.464172,447.320831 
	C592.534668,444.213318 591.426331,442.532593 588.840820,441.031982 
	C580.780151,436.353790 572.854187,431.443359 564.269348,426.216827 
z"/>
<path fill="#121324" opacity="1.000000" stroke="none" 
	d="
M503.874115,1000.835388 
	C514.337708,1000.667114 524.801270,1000.498901 535.941223,1000.586060 
	C539.782288,1000.893372 542.946960,1000.990601 546.111633,1000.990784 
	C689.074402,1000.999207 832.037231,1000.999084 975.000000,1001.000000 
	C975.000000,1027.656372 975.000000,1054.312744 975.000000,1080.953369 
	C650.333313,1080.953369 325.666656,1080.953369 1.000000,1080.953369 
	C1.000000,1054.583618 1.000000,1028.260498 1.468657,1001.468506 
	C163.085907,1000.998718 324.234497,1000.999451 485.383087,1000.989990 
	C491.546753,1000.989624 497.710449,1000.889221 503.874115,1000.835388 
M141.738495,1030.895386 
	C139.871765,1030.255249 138.040192,1029.228516 136.131012,1029.054688 
	C132.069397,1028.685059 128.246735,1029.653442 127.092415,1034.182129 
	C125.884888,1038.919800 128.903061,1041.157227 132.985367,1042.397095 
	C134.726089,1042.925903 136.621078,1043.244385 138.119202,1044.181030 
	C139.344620,1044.947144 140.867691,1046.518066 140.824280,1047.678589 
	C140.779327,1048.881104 139.147186,1050.816406 137.962891,1051.023682 
	C135.301010,1051.489624 132.483978,1050.993408 129.735580,1051.074707 
	C128.490570,1051.111572 127.258644,1051.590576 126.020782,1051.868896 
	C126.131821,1052.652954 126.242851,1053.437012 126.353882,1054.221069 
	C130.660583,1054.221069 135.184036,1055.013062 139.190628,1053.916504 
	C141.499969,1053.284546 144.223755,1049.710083 144.440231,1047.255493 
	C144.623184,1045.180786 141.769638,1042.449829 139.684097,1040.693115 
	C138.160095,1039.409424 135.534805,1039.523682 133.713470,1038.472534 
	C132.367004,1037.695557 131.524765,1036.044800 130.457886,1034.783325 
	C131.908066,1033.890015 133.426590,1032.166992 134.793900,1032.279663 
	C137.478195,1032.500854 140.078354,1033.743164 143.329651,1034.754761 
	C143.019409,1033.412354 142.762466,1032.300415 141.738495,1030.895386 
M203.250977,1037.746460 
	C201.975815,1038.886841 200.700638,1040.027222 198.685165,1041.829590 
	C198.685165,1038.290405 198.698135,1035.838013 198.682266,1033.385986 
	C198.655746,1029.291748 198.647980,1029.291748 195.229660,1029.565796 
	C195.229660,1037.989380 195.229660,1046.413452 195.229660,1055.152710 
	C201.960800,1054.509888 196.329117,1048.073364 199.796570,1046.219238 
	C204.134964,1048.013672 203.525391,1056.167480 210.970078,1054.776489 
	C208.066238,1050.688110 205.413071,1046.952759 202.239120,1042.484131 
	C204.994171,1040.120361 207.590363,1037.892822 210.186569,1035.665405 
	C209.915421,1035.250488 209.644272,1034.835571 209.373138,1034.420654 
	C207.518082,1035.352539 205.663040,1036.284302 203.250977,1037.746460 
M164.109802,1035.131470 
	C158.617905,1037.847656 156.841751,1041.187378 157.697159,1047.026855 
	C158.348282,1051.472046 160.732285,1054.313232 165.240189,1054.968018 
	C170.809723,1055.777100 174.905197,1052.101807 175.397903,1046.060059 
	C175.978287,1038.943237 172.284851,1035.059082 164.109802,1035.131470 
M40.722488,1055.004395 
	C41.595657,1054.721924 43.056099,1054.657593 43.254097,1054.124512 
	C46.312504,1045.888916 49.206955,1037.592407 52.139427,1029.310059 
	C51.589600,1029.103516 51.039768,1028.896973 50.489937,1028.690430 
	C47.660370,1036.397583 44.830803,1044.104614 41.791676,1052.382568 
	C37.908241,1044.391968 36.730152,1035.910400 32.476830,1028.861938 
	C31.991547,1029.077759 31.506264,1029.293579 31.020983,1029.509399 
	C34.031437,1037.873047 37.041893,1046.236694 40.722488,1055.004395 
M182.539001,1049.496826 
	C179.670639,1041.561157 181.782150,1038.418335 189.689575,1038.607666 
	C190.557877,1038.628540 191.451157,1037.607422 192.791367,1036.789795 
	C186.621643,1034.048828 182.668518,1034.674438 179.847778,1038.308350 
	C176.950287,1042.041138 177.151260,1048.819092 180.260803,1052.236206 
	C183.189941,1055.455200 187.346298,1055.872437 193.121552,1052.768799 
	C191.140503,1052.213257 190.092651,1051.899048 189.033920,1051.626953 
	C187.050140,1051.117065 185.060089,1050.631592 182.539001,1049.496826 
M60.433598,1046.054565 
	C62.370644,1046.054565 64.307686,1046.054565 66.236473,1046.054565 
	C66.244019,1038.602295 63.893848,1035.082520 59.206867,1034.953003 
	C54.629295,1034.826294 50.895901,1038.712769 50.955593,1044.235229 
	C50.982731,1046.745850 51.591965,1049.610840 52.928173,1051.673096 
	C55.893322,1056.249146 63.314926,1056.346436 65.807556,1052.223877 
	C56.718613,1054.251953 53.500900,1052.673218 53.559601,1046.060059 
	C55.545147,1046.060059 57.532703,1046.060059 60.433598,1046.054565 
M104.403816,1055.052002 
	C105.814880,1054.651123 107.405624,1054.539917 108.604218,1053.796509 
	C112.637642,1051.294678 113.510765,1047.295044 112.876747,1042.961304 
	C112.308990,1039.080444 110.184616,1036.117065 106.204430,1035.179932 
	C102.561554,1034.322388 99.287781,1035.260986 96.943558,1038.412476 
	C92.147591,1044.860107 95.602493,1053.490356 104.403816,1055.052002 
M147.778870,1047.153564 
	C147.652328,1050.626587 148.656586,1053.541138 152.327042,1054.495483 
	C153.426971,1054.781494 154.818375,1053.946411 156.076248,1053.624878 
	C147.362640,1050.015381 152.561966,1043.187866 150.856537,1038.451904 
	C152.867889,1037.998413 154.338776,1037.666748 155.809647,1037.335083 
	C155.877548,1036.877197 155.945450,1036.419434 156.013351,1035.961548 
	C154.452744,1035.461792 152.892120,1034.961914 151.175644,1034.412231 
	C151.087875,1032.729248 150.996384,1030.975098 150.904907,1029.221069 
	C150.428925,1029.036987 149.952942,1028.852905 149.476944,1028.668701 
	C148.913742,1029.693359 147.902313,1030.701416 147.864044,1031.745361 
	C147.687225,1036.566650 147.781219,1041.397827 147.778870,1047.153564 
M876.026001,1048.331543 
	C876.290466,1049.281128 876.257202,1050.696045 876.875854,1051.091675 
	C878.641357,1052.220825 880.695435,1053.605347 882.588928,1053.539185 
	C883.583740,1053.504517 885.450867,1050.440186 885.170471,1049.114868 
	C884.834351,1047.525879 882.690735,1046.257202 881.193420,1045.014282 
	C880.756714,1044.651611 879.853821,1044.850464 879.164612,1044.791992 
	C879.087952,1044.468018 879.011292,1044.144043 878.934631,1043.820068 
	C880.796265,1042.949341 882.657837,1042.078491 884.707153,1041.119873 
	C879.475159,1039.177734 877.381042,1040.821899 876.026001,1048.331543 
M75.998062,1037.185791 
	C78.471680,1037.185791 80.945305,1037.185791 84.469948,1037.185791 
	C78.331787,1033.785889 73.691429,1034.638428 70.910889,1038.874390 
	C67.951469,1043.382935 68.902992,1050.375977 72.889221,1053.413086 
	C76.121674,1055.875977 81.078682,1055.658936 84.068695,1052.525391 
	C79.344971,1053.018433 74.332298,1054.594238 72.181763,1048.970459 
	C70.513092,1044.606934 70.935440,1040.432251 75.998062,1037.185791 
M852.047729,1049.380493 
	C852.209900,1050.947876 852.372131,1052.515259 852.534302,1054.082642 
	C853.027710,1054.037354 853.521057,1053.992188 854.014465,1053.947021 
	C854.014465,1051.527466 854.380615,1049.024292 853.855408,1046.724731 
	C853.604187,1045.624756 851.691040,1044.202637 850.482178,1044.154907 
	C846.880615,1044.012695 843.255066,1044.478760 839.788757,1044.697754 
	C839.788757,1047.734619 839.788757,1050.850464 839.788757,1053.966309 
	C839.977478,1053.975952 840.166199,1053.985596 840.354858,1053.995117 
	C841.336426,1051.249268 842.317932,1048.503418 843.299438,1045.757690 
	C843.908447,1045.867310 844.517456,1045.976929 845.126465,1046.086548 
	C845.531128,1048.731689 845.935791,1051.376831 846.340454,1054.021851 
	C847.688904,1052.228760 847.633606,1050.478516 848.063538,1048.856934 
	C848.317871,1047.897461 849.339050,1047.141479 850.015381,1046.294067 
	C850.686584,1047.003174 851.357849,1047.712280 852.047729,1049.380493 
M89.439491,1042.504150 
	C90.271011,1040.079956 91.102531,1037.655640 91.981735,1035.092407 
	C91.836662,1035.055176 90.663940,1034.754272 89.664322,1034.497803 
	C89.418938,1032.346436 89.225128,1030.647217 89.031311,1028.947998 
	C88.625458,1029.002197 88.219597,1029.056519 87.813744,1029.110840 
	C87.813744,1036.401245 87.602501,1043.703125 87.997711,1050.972046 
	C88.073807,1052.371704 90.527992,1053.641968 91.575714,1054.668701 
	C90.808907,1050.626953 90.128502,1047.040649 89.439491,1042.504150 
M873.798950,1050.277710 
	C872.913147,1046.904907 872.027344,1043.532104 870.791138,1038.825073 
	C867.964783,1043.050903 865.583984,1046.610474 863.406616,1049.865967 
	C866.681580,1051.155518 869.151917,1052.128174 871.708252,1053.134644 
	C871.912659,1052.833496 872.578369,1051.852539 873.798950,1050.277710 
M937.892029,1051.146362 
	C939.018921,1052.102783 940.591736,1054.082520 941.188354,1053.822510 
	C942.933899,1053.061890 945.780090,1050.787231 945.540588,1050.212891 
	C944.523376,1047.774170 942.545715,1045.736084 940.438232,1042.906250 
	C941.244324,1042.609619 943.111755,1041.922485 944.979248,1041.235229 
	C944.959045,1040.981201 944.938904,1040.727051 944.918762,1040.473022 
	C942.661255,1040.473022 940.403809,1040.473022 938.003113,1040.473022 
	C937.889099,1042.524170 937.772278,1044.626587 937.733643,1045.321655 
	C940.262085,1047.316772 941.936523,1048.637939 943.610962,1049.959106 
	C941.964905,1050.365723 940.318909,1050.772339 937.892029,1051.146362 
M804.264832,1041.151001 
	C803.682129,1040.904297 803.099487,1040.657593 802.516785,1040.410889 
	C802.516785,1044.910645 802.516785,1049.410400 802.516785,1053.910034 
	C802.958130,1053.892578 803.399475,1053.875122 803.840820,1053.857666 
	C804.175659,1052.320190 804.510559,1050.782837 804.919495,1048.905396 
	C806.713562,1051.005737 808.089844,1052.617065 809.365540,1054.110596 
	C809.089722,1050.411987 808.856201,1047.281494 808.622864,1044.152344 
	C807.807922,1044.764282 806.458984,1045.776978 804.288086,1047.406860 
	C804.288086,1045.101074 804.288086,1043.536133 804.264832,1041.151001 
M922.652100,1047.984253 
	C924.705322,1055.321777 918.637695,1049.802368 916.752319,1051.882324 
	C919.160034,1054.227783 921.741272,1055.234375 924.343628,1052.615845 
	C927.378906,1049.561646 925.157715,1047.159790 922.516174,1045.319214 
	C923.665222,1043.595703 924.630066,1042.148682 926.179688,1039.824341 
	C922.495056,1040.039307 919.868896,1040.192627 917.242737,1040.345825 
	C917.251953,1040.764404 917.261108,1041.182983 917.270325,1041.601685 
	C918.815735,1041.853638 920.361145,1042.105713 922.065430,1042.383667 
	C921.155945,1043.828247 920.309448,1045.172729 919.374878,1046.657104 
	C920.373596,1047.016724 921.142517,1047.293701 922.652100,1047.984253 
M705.596741,1041.042480 
	C705.013611,1040.672607 704.430420,1040.302856 702.707642,1039.210327 
	C704.835815,1045.074585 706.512573,1049.694946 708.189270,1054.315430 
	C708.743774,1054.314697 709.298279,1054.313965 709.852783,1054.313354 
	C711.506653,1049.669678 713.160461,1045.026001 714.814270,1040.382446 
	C714.287231,1040.160522 713.760193,1039.938477 713.233215,1039.716553 
	C711.911011,1043.018799 710.588806,1046.320923 708.868530,1050.617310 
	C707.646240,1046.964600 706.772766,1044.354492 705.596741,1041.042480 
M768.216064,1046.279785 
	C767.096924,1045.565186 765.977844,1044.850586 764.858765,1044.135986 
	C764.982300,1043.679321 765.105774,1043.222656 765.229309,1042.765991 
	C767.115967,1042.595703 769.002686,1042.425537 770.889343,1042.255249 
	C769.498108,1040.803101 767.685730,1039.872437 766.220764,1040.258789 
	C764.953918,1040.593018 763.315491,1042.384399 763.254028,1043.603149 
	C763.194458,1044.781982 764.912537,1046.072632 765.896484,1047.276001 
	C766.907227,1048.511841 767.974548,1049.701294 769.017151,1050.911133 
	C767.371887,1050.962036 765.725586,1050.994751 764.082214,1051.080811 
	C763.788208,1051.096191 763.505798,1051.332275 762.948547,1051.592041 
	C765.163635,1054.664673 767.959961,1055.074707 770.387085,1052.639893 
	C772.576782,1050.443237 771.677429,1048.064697 768.216064,1046.279785 
M897.652405,1041.936401 
	C897.626343,1042.222778 897.476440,1042.603394 897.604736,1042.772461 
	C897.775757,1042.997803 898.156982,1043.153442 898.459167,1043.174072 
	C900.013062,1043.280518 901.570557,1043.333984 903.126831,1043.406006 
	C902.238159,1044.821045 901.404114,1046.274292 900.447388,1047.641724 
	C899.154907,1049.489258 897.768188,1051.270752 895.550781,1054.251587 
	C900.192139,1053.994385 903.041626,1053.836548 905.891113,1053.678589 
	C905.882385,1053.219116 905.873657,1052.759521 905.864929,1052.300049 
	C903.875549,1052.077148 901.886169,1051.854248 899.470398,1051.583496 
	C901.462341,1047.962280 908.135620,1046.843994 904.555908,1041.587036 
	C903.829041,1040.519531 900.307495,1041.355103 897.652405,1041.936401 
M723.376099,1045.003906 
	C720.434082,1043.114258 717.476624,1043.592285 716.413818,1046.696289 
	C715.810059,1048.459473 716.997620,1051.482178 718.386230,1053.038452 
	C719.214600,1053.966675 721.994202,1053.153931 723.896667,1053.123779 
	C723.895325,1052.758545 723.893982,1052.393311 723.892700,1052.028076 
	C721.893311,1051.596436 719.893921,1051.164673 717.894531,1050.733032 
	C717.991699,1050.238647 718.088928,1049.744263 718.186096,1049.249878 
	C720.365601,1049.081787 722.545044,1048.913696 725.046509,1048.720947 
	C724.584167,1047.396606 724.263855,1046.479004 723.376099,1045.003906 
M780.125427,1047.000977 
	C779.252441,1050.969604 780.533936,1053.860229 784.818115,1053.825928 
	C786.502747,1053.812622 789.056702,1052.083008 789.595459,1050.561523 
	C790.123413,1049.070435 789.142944,1046.227417 787.847839,1045.083618 
	C785.380676,1042.904785 782.615845,1043.695190 780.125427,1047.000977 
M836.324646,1051.619873 
	C838.033203,1048.028809 836.988281,1045.118164 833.266296,1044.322998 
	C831.533081,1043.952759 828.594116,1045.286499 827.569092,1046.784058 
	C826.744995,1047.987915 827.324524,1051.158081 828.440491,1052.468872 
	C830.567810,1054.967651 833.432007,1054.551392 836.324646,1051.619873 
M750.935852,1044.329224 
	C747.783630,1043.434448 744.817322,1044.171387 744.251953,1047.430786 
	C743.930847,1049.281860 745.377930,1052.379272 746.973267,1053.329346 
	C748.279541,1054.107422 751.658997,1053.185425 752.919800,1051.868652 
	C755.183899,1049.503784 754.508850,1046.686035 750.935852,1044.329224 
M123.185799,1035.240234 
	C121.024803,1035.575439 118.863808,1035.910767 116.425400,1036.288940 
	C116.425400,1041.825439 116.425400,1048.357788 116.425400,1054.890137 
	C116.839874,1054.913818 117.254349,1054.937622 117.668823,1054.961304 
	C117.763000,1053.288940 118.085495,1051.592285 117.910233,1049.948608 
	C117.287903,1044.112549 117.565071,1038.730591 123.185799,1035.240234 
M889.554138,1050.009766 
	C889.035095,1051.255981 888.516113,1052.502319 887.997070,1053.748535 
	C888.482910,1053.975098 888.968750,1054.201538 889.454529,1054.428101 
	C891.644714,1049.856812 893.834839,1045.285645 896.157654,1040.437500 
	C892.586548,1040.437500 889.672668,1040.437500 886.758789,1040.437500 
	C886.728149,1040.873779 886.697510,1041.309937 886.666809,1041.746216 
	C888.718079,1041.911987 890.769348,1042.077881 893.172424,1042.272095 
	C891.954041,1044.881592 890.916077,1047.104858 889.554138,1050.009766 
M928.610474,1042.710327 
	C932.110962,1045.052002 931.915100,1049.725464 928.023010,1053.703857 
	C930.701660,1053.703857 933.243347,1053.703857 934.437561,1053.703857 
	C933.691101,1049.077393 932.968994,1044.602051 932.165833,1039.624512 
	C930.980896,1040.561890 930.001770,1041.336304 928.610474,1042.710327 
M817.960876,1052.367432 
	C820.575012,1054.661255 823.035828,1054.735596 824.940002,1052.842529 
	C822.779053,1051.459717 820.857666,1050.230103 818.936218,1049.000488 
	C820.835266,1047.776611 822.734314,1046.552734 825.543274,1044.742554 
	C823.086731,1044.742554 820.089783,1043.949097 819.325195,1044.917725 
	C817.981812,1046.619507 818.004700,1049.399658 817.960876,1052.367432 
M799.839050,1051.297607 
	C797.418091,1051.909546 794.338928,1052.885376 794.223877,1049.231079 
	C794.183716,1047.953979 797.510620,1046.571167 799.210876,1045.302979 
	C797.319946,1043.515503 794.543762,1043.072998 793.299194,1045.636719 
	C792.372375,1047.546021 792.341858,1051.035767 793.530884,1052.553467 
	C795.239746,1054.734741 798.374573,1055.407593 799.839050,1051.297607 
M216.684082,1029.845215 
	C215.744431,1029.486938 214.804779,1029.128662 212.985611,1028.435181 
	C213.816681,1032.071655 214.462799,1034.898804 215.108917,1037.725952 
	C217.331085,1037.185181 219.553253,1036.644531 222.193649,1036.002075 
	C220.129425,1033.362061 218.724640,1031.565308 216.684082,1029.845215 
M729.278625,1044.662720 
	C726.078369,1047.005859 725.713379,1049.952515 728.405762,1052.635986 
	C730.619202,1054.842285 733.286438,1054.760132 735.090576,1052.617065 
	C732.905884,1051.489380 730.926941,1050.467773 728.947937,1049.446289 
	C730.796082,1048.039185 732.644165,1046.632080 735.052246,1044.798584 
	C733.428284,1044.622681 731.698059,1044.435425 729.278625,1044.662720 
M914.995178,1053.941040 
	C915.261047,1053.601196 915.526917,1053.261353 915.792786,1052.921509 
	C911.970337,1051.709106 913.029175,1048.536133 912.967407,1045.832764 
	C912.924011,1043.933838 912.959045,1042.032959 912.959045,1038.712646 
	C910.621643,1040.802368 909.368286,1041.922852 907.512207,1043.582275 
	C909.183472,1043.672241 910.011475,1043.716797 911.027161,1043.771484 
	C910.327820,1047.022095 912.977112,1051.192871 908.061768,1054.023071 
	C910.082397,1054.023071 912.102966,1054.023071 914.995178,1053.941040 
M756.271423,1051.951294 
	C756.597412,1052.643799 756.923401,1053.336182 757.189514,1053.901489 
	C758.612732,1050.558838 759.917786,1047.493896 761.269592,1044.319092 
	C760.011108,1044.380981 758.316284,1044.464355 756.269287,1044.565186 
	C756.269287,1046.827759 756.269287,1048.962402 756.271423,1051.951294 
M775.831543,1042.927490 
	C775.331726,1042.697266 774.538025,1042.140625 774.376465,1042.286133 
	C772.185486,1044.259155 773.506287,1052.503906 776.216736,1053.823853 
	C776.693909,1054.056274 777.381348,1053.856812 778.686218,1053.856812 
	C776.329712,1050.799927 773.673401,1048.110962 777.926025,1045.382690 
	C777.319824,1044.811157 776.713562,1044.239624 775.831543,1042.927490 
M739.929810,1046.857910 
	C740.645691,1046.326050 741.361511,1045.794312 742.312134,1045.088135 
	C740.968384,1043.921509 739.854187,1042.954102 738.739929,1041.986816 
	C738.253418,1042.066650 737.766907,1042.146484 737.280334,1042.226318 
	C737.666260,1045.695068 737.890381,1049.196411 738.576721,1052.604614 
	C738.711548,1053.274414 740.631836,1053.584717 741.736328,1054.064209 
	C740.960388,1051.424072 740.413940,1049.564697 739.929810,1046.857910 
M219.609650,1027.519043 
	C219.609650,1027.519043 219.473892,1027.605225 219.609650,1027.519043 
z"/>
<path fill="#FEFFFF" opacity="1.000000" stroke="none" 
	d="
M975.000000,569.531372 
	C973.699524,561.529480 972.596069,553.023254 971.065002,544.594604 
	C963.768921,504.429321 946.558594,469.145355 918.595032,439.287415 
	C916.192566,436.722168 915.792236,434.746948 917.056824,431.476074 
	C932.203918,392.295929 938.374878,351.882080 933.322998,309.976868 
	C928.261841,267.994476 912.505127,230.488907 887.057007,196.743378 
	C859.094727,159.663986 825.721863,129.254547 782.860046,110.358131 
	C739.615845,91.293129 694.825195,86.411034 648.642334,97.361664 
	C644.868896,98.256409 642.984131,97.343704 640.703125,94.594147 
	C602.676636,48.756451 555.386414,17.796932 496.605225,5.591752 
	C487.987335,3.802356 479.170685,2.970095 470.223022,1.347484 
	C638.264771,1.000000 806.529541,1.000000 975.000000,1.000000 
	C975.000000,190.354172 975.000000,379.708435 975.000000,569.531372 
z"/>
<path fill="#FEFFFF" opacity="1.000000" stroke="none" 
	d="
M503.632019,1000.525146 
	C497.710449,1000.889221 491.546753,1000.989624 485.383087,1000.989990 
	C324.234497,1000.999451 163.085907,1000.998718 1.468657,1000.999878 
	C1.000000,811.979126 1.000000,622.958191 1.000000,433.468658 
	C1.957210,438.980408 2.922905,444.959442 3.870258,450.941406 
	C10.387791,492.095734 26.878206,528.592834 54.924381,559.599731 
	C57.404602,562.341797 57.745651,564.403381 56.548817,567.843201 
	C31.251230,640.550781 34.443207,712.047302 72.295319,779.193726 
	C106.942123,840.654175 157.662552,884.759705 227.587341,903.333435 
	C259.022705,911.683411 290.775116,912.385681 322.520874,905.164490 
	C327.728943,903.979736 330.416992,905.262268 333.691010,909.201721 
	C366.577637,948.772949 407.230988,977.020508 456.943298,991.099792 
	C472.072479,995.384644 487.888489,997.244385 503.632019,1000.525146 
z"/>
<path fill="#FFFFFF" opacity="1.000000" stroke="none" 
	d="
M975.000000,1000.531372 
	C832.037231,1000.999084 689.074402,1000.999207 546.111633,1000.990784 
	C542.946960,1000.990601 539.782288,1000.893372 536.357483,1000.519653 
	C595.481384,996.057983 649.624817,978.376160 694.937378,938.258545 
	C724.035278,912.496460 744.486145,881.026062 755.829224,843.793457 
	C756.837830,840.482727 758.193542,839.098145 761.709717,838.487915 
	C800.396240,831.773865 836.456116,818.325745 868.934998,795.928101 
	C908.670654,768.526184 936.557251,731.949402 954.023621,687.048523 
	C964.530457,660.038269 971.856445,632.365295 974.654480,603.227112 
	C975.000000,735.354248 975.000000,867.708435 975.000000,1000.531372 
z"/>
<path fill="#FFFFFF" opacity="1.000000" stroke="none" 
	d="
M437.531342,1.000001 
	C431.009613,1.996650 424.023193,3.022372 417.028137,3.985085 
	C379.821289,9.105773 344.554993,20.012924 312.515198,39.971466 
	C267.280121,68.149704 235.443100,107.023766 219.578949,158.315399 
	C218.589981,161.512924 217.063110,162.603165 213.778351,163.157379 
	C135.269577,176.403488 75.074600,216.908936 35.505787,286.068909 
	C15.892999,320.348877 5.153949,358.028259 1.353606,397.783325 
	C1.000000,265.736084 1.000000,133.472168 1.000000,1.000000 
	C146.354156,1.000000 291.708435,1.000000 437.531342,1.000001 
z"/>
<path fill="#FEFFFF" opacity="1.000000" stroke="none" 
	d="
M698.292786,353.688049 
	C747.439575,385.060669 796.443359,415.987457 845.092285,447.462860 
	C902.801331,484.800079 927.257568,538.720520 919.916443,606.264771 
	C914.721375,654.063416 896.880127,697.116089 862.367615,731.937256 
	C836.739868,757.794250 805.930725,774.476807 770.525391,782.753418 
	C769.238586,783.054199 767.922852,783.231140 765.954529,783.585876 
	C765.954529,781.420532 765.893494,779.521362 765.963318,777.627075 
	C768.221313,716.351868 770.503357,655.077454 772.755005,593.802002 
	C773.605469,570.657776 774.277649,547.506348 775.258911,524.367859 
	C775.668884,514.701538 771.830872,507.870209 763.583679,502.890198 
	C687.047302,456.674164 610.570435,410.359467 534.078552,364.069733 
	C532.379761,363.041748 530.707275,361.970367 528.568237,360.635773 
	C529.852966,359.723022 530.776855,358.925262 531.821594,358.345154 
	C558.455017,343.556244 585.185608,328.939636 611.698853,313.938599 
	C620.907654,308.728271 629.084778,309.253601 637.826233,314.982452 
	C657.739929,328.033142 677.920593,340.676300 698.292786,353.688049 
z"/>
<path fill="#FEFFFE" opacity="1.000000" stroke="none" 
	d="
M680.114868,146.029968 
	C735.320984,141.371796 780.684875,161.467453 818.798035,199.447266 
	C847.482361,228.031143 869.069275,260.935455 877.471008,301.413330 
	C884.146912,333.576630 882.888794,365.266052 873.251526,396.645325 
	C873.007446,397.440155 872.773193,398.239807 872.482422,399.017761 
	C872.309814,399.479492 872.035278,399.903107 871.587708,400.765472 
	C862.837097,395.311981 854.143188,389.900757 845.455994,384.478729 
	C781.338745,344.460297 717.158752,304.541748 653.174683,264.311554 
	C643.405884,258.169373 634.770142,258.136139 624.776428,263.711670 
	C547.460327,306.846893 469.989807,349.705170 392.563141,392.642212 
	C390.847046,393.593872 389.084991,394.462799 386.861511,395.622101 
	C386.695923,394.333160 386.469543,393.444275 386.484344,392.559448 
	C387.006134,361.410645 387.593353,330.262848 388.065277,299.113342 
	C388.204559,289.920135 392.065247,283.293030 400.311676,279.015381 
	C475.202820,240.167313 550.027588,201.191208 624.957886,162.418900 
	C642.101868,153.547852 660.442871,148.221878 680.114868,146.029968 
z"/>
<path fill="#FEFFFF" opacity="1.000000" stroke="none" 
	d="
M410.328430,59.257668 
	C428.351440,56.172432 446.037079,53.725357 463.929504,54.973671 
	C515.337341,58.560280 558.267944,79.727104 593.484009,118.011597 
	C591.801880,119.051834 590.510742,119.954308 589.130371,120.689072 
	C514.776245,160.267899 440.468414,199.934616 365.991791,239.281738 
	C355.584534,244.780045 351.225861,252.449524 351.064880,264.031921 
	C350.127075,331.513519 348.851318,398.990479 347.661896,466.468506 
	C347.256836,489.447174 346.771088,512.424438 346.307983,536.131348 
	C344.386169,535.089539 342.972748,534.394592 341.628845,533.584290 
	C315.536072,517.851624 289.495392,502.031982 263.339050,486.405792 
	C255.198029,481.542267 251.564758,474.750671 252.008804,465.298157 
	C254.971710,402.223511 257.816742,339.143311 260.710571,276.065399 
	C261.703094,254.431335 262.122406,232.750366 263.849030,211.174484 
	C268.795013,149.369003 300.745422,105.611420 355.079254,77.405945 
	C372.330994,68.450333 390.884460,63.096500 410.328430,59.257668 
z"/>
<path fill="#FEFFFE" opacity="1.000000" stroke="none" 
	d="
M375.950531,723.957642 
	C446.906860,684.770142 517.527039,645.733337 588.846069,606.310242 
	C588.973083,608.570374 589.161804,610.118652 589.131897,611.662659 
	C588.535706,642.481445 587.889771,673.299255 587.313538,704.118347 
	C587.151245,712.800171 583.171448,718.940796 575.522278,722.897644 
	C501.761597,761.053101 428.077362,799.357056 354.234161,837.352051 
	C289.433929,870.694092 217.355545,859.604004 162.471863,807.662292 
	C133.751465,780.481384 111.001274,749.267517 100.611336,710.269409 
	C91.056168,674.404480 91.639862,638.816467 102.855515,603.420471 
	C103.098000,602.655151 103.391937,601.906250 103.880226,600.537659 
	C105.804657,601.692810 107.464294,602.651428 109.087311,603.668579 
	C180.332428,648.316956 251.607925,692.917114 322.775146,737.689331 
	C331.918762,743.441772 340.504303,744.089661 349.861938,738.415161 
	C358.252563,733.327026 367.015625,728.853149 375.950531,723.957642 
z"/>
<path fill="#FEFFFF" opacity="1.000000" stroke="none" 
	d="
M720.213745,610.238708 
	C717.415039,670.629944 715.694946,730.618835 711.556458,790.440308 
	C707.123718,854.514954 673.040527,899.434021 615.736755,926.731201 
	C582.859619,942.392456 547.535889,948.937256 511.281952,946.856628 
	C460.423370,943.937927 417.733459,922.720581 383.229065,885.179382 
	C382.791321,884.703125 382.460785,884.128235 381.905945,883.357178 
	C401.759796,872.829895 421.451660,862.387695 441.144257,851.947021 
	C497.911774,821.849792 554.663025,791.721741 611.464966,761.689636 
	C620.183472,757.079956 624.028198,750.159973 624.206726,740.312866 
	C625.807434,652.010986 627.592102,563.712463 629.335022,475.413208 
	C629.393250,472.467407 629.583313,469.524261 629.741089,465.911102 
	C638.321350,471.078094 646.282593,475.856567 654.228516,480.660400 
	C673.464111,492.289642 692.625427,504.044006 711.954956,515.514893 
	C720.422302,520.539795 724.371765,527.504700 723.831177,537.377930 
	C722.510498,561.499634 721.414429,585.633606 720.213745,610.238708 
z"/>
<path fill="#FEFFFF" opacity="1.000000" stroke="none" 
	d="
M138.204926,558.793457 
	C112.728058,543.615234 91.268852,524.722534 76.555138,499.050964 
	C53.910088,459.541321 49.432529,417.301239 59.476601,373.438293 
	C66.516083,342.696564 77.880196,313.566864 97.339073,288.298401 
	C125.563087,251.648026 162.487564,228.462875 207.610580,218.325775 
	C208.072037,218.222092 208.577164,218.312866 209.286011,218.312866 
	C209.286011,221.626358 209.382187,224.880615 209.271652,228.127808 
	C207.491699,280.413574 205.693893,332.698730 203.881958,384.983368 
	C202.808624,415.955353 201.801254,446.930145 200.554962,477.895264 
	C200.166428,487.548706 203.872650,494.437988 212.140808,499.413025 
	C289.030273,545.677979 365.865326,592.033264 442.712219,638.368958 
	C444.123108,639.219666 445.485779,640.150391 447.490692,641.443481 
	C444.530396,643.098267 442.020905,644.515076 439.498749,645.908875 
	C413.857330,660.078308 388.181152,674.185364 362.590027,688.445068 
	C354.466034,692.971863 346.902863,692.532776 339.126617,687.542114 
	C272.283905,644.644226 205.387650,601.829773 138.204926,558.793457 
z"/>
<path fill="#FEFFFF" opacity="1.000000" stroke="none" 
	d="
M564.572693,426.419891 
	C572.854187,431.443359 580.780151,436.353790 588.840820,441.031982 
	C591.426331,442.532593 592.534668,444.213318 592.464172,447.320831 
	C591.617615,484.620483 590.955078,521.924377 590.028931,559.221802 
	C589.984558,561.008606 588.356262,563.500305 586.756287,564.394470 
	C554.218201,582.579285 521.597046,600.616333 488.893646,618.502136 
	C487.281158,619.383972 484.290405,619.428162 482.748627,618.508789 
	C450.729492,599.414612 418.805389,580.160278 386.965790,560.767944 
	C385.344910,559.780762 383.648865,557.259460 383.672150,555.474426 
	C384.161072,518.001770 384.840240,480.530975 385.729065,443.065704 
	C385.774658,441.143188 387.578857,438.473755 389.319153,437.496918 
	C421.820587,419.254395 454.455170,401.249207 486.993713,383.072357 
	C489.655945,381.585205 491.472534,382.174713 493.789520,383.583405 
	C517.250610,397.847443 540.767883,412.019196 564.572693,426.419891 
z"/>
<path fill="#EBEBED" opacity="1.000000" stroke="none" 
	d="
M142.122009,1031.041992 
	C142.762466,1032.300415 143.019409,1033.412354 143.329651,1034.754761 
	C140.078354,1033.743164 137.478195,1032.500854 134.793900,1032.279663 
	C133.426590,1032.166992 131.908066,1033.890015 130.457886,1034.783325 
	C131.524765,1036.044800 132.367004,1037.695557 133.713470,1038.472534 
	C135.534805,1039.523682 138.160095,1039.409424 139.684097,1040.693115 
	C141.769638,1042.449829 144.623184,1045.180786 144.440231,1047.255493 
	C144.223755,1049.710083 141.499969,1053.284546 139.190628,1053.916504 
	C135.184036,1055.013062 130.660583,1054.221069 126.353882,1054.221069 
	C126.242851,1053.437012 126.131821,1052.652954 126.020782,1051.868896 
	C127.258644,1051.590576 128.490570,1051.111572 129.735580,1051.074707 
	C132.483978,1050.993408 135.301010,1051.489624 137.962891,1051.023682 
	C139.147186,1050.816406 140.779327,1048.881104 140.824280,1047.678589 
	C140.867691,1046.518066 139.344620,1044.947144 138.119202,1044.181030 
	C136.621078,1043.244385 134.726089,1042.925903 132.985367,1042.397095 
	C128.903061,1041.157227 125.884888,1038.919800 127.092415,1034.182129 
	C128.246735,1029.653442 132.069397,1028.685059 136.131012,1029.054688 
	C138.040192,1029.228516 139.871765,1030.255249 142.122009,1031.041992 
z"/>
<path fill="#E6E8EB" opacity="1.000000" stroke="none" 
	d="
M203.529480,1037.481323 
	C205.663040,1036.284302 207.518082,1035.352539 209.373138,1034.420654 
	C209.644272,1034.835571 209.915421,1035.250488 210.186569,1035.665405 
	C207.590363,1037.892822 204.994171,1040.120361 202.239120,1042.484131 
	C205.413071,1046.952759 208.066238,1050.688110 210.970078,1054.776489 
	C203.525391,1056.167480 204.134964,1048.013672 199.797241,1046.219971 
	C196.329117,1048.073364 201.960800,1054.509888 195.229660,1055.152710 
	C195.229660,1046.413452 195.229660,1037.989380 195.229660,1029.565796 
	C198.647980,1029.291748 198.655746,1029.291748 198.682266,1033.385986 
	C198.698135,1035.838013 198.685165,1038.290405 198.685165,1041.829590 
	C200.700638,1040.027222 201.975815,1038.886841 203.529480,1037.481323 
z"/>
<path fill="#EFEFF1" opacity="1.000000" stroke="none" 
	d="
M164.506943,1035.078125 
	C172.284851,1035.059082 175.978287,1038.943237 175.397903,1046.060059 
	C174.905197,1052.101807 170.809723,1055.777100 165.240189,1054.968018 
	C160.732285,1054.313232 158.348282,1051.472046 157.697159,1047.026855 
	C156.841751,1041.187378 158.617905,1037.847656 164.506943,1035.078125 
M170.538025,1049.910767 
	C170.829895,1047.212891 171.774826,1044.381226 171.256760,1041.849121 
	C170.524963,1038.272461 166.700256,1037.035156 163.836731,1038.815674 
	C160.985718,1040.588501 159.961349,1045.881104 162.015976,1049.140747 
	C164.106857,1052.458008 166.865250,1052.850098 170.538025,1049.910767 
z"/>
<path fill="#DFDFE3" opacity="1.000000" stroke="none" 
	d="
M40.387421,1054.802368 
	C37.041893,1046.236694 34.031437,1037.873047 31.020983,1029.509399 
	C31.506264,1029.293579 31.991547,1029.077759 32.476830,1028.861938 
	C36.730152,1035.910400 37.908241,1044.391968 41.791676,1052.382568 
	C44.830803,1044.104614 47.660370,1036.397583 50.489937,1028.690430 
	C51.039768,1028.896973 51.589600,1029.103516 52.139427,1029.310059 
	C49.206955,1037.592407 46.312504,1045.888916 43.254097,1054.124512 
	C43.056099,1054.657593 41.595657,1054.721924 40.387421,1054.802368 
z"/>
<path fill="#EFEFF1" opacity="1.000000" stroke="none" 
	d="
M182.805817,1049.816406 
	C185.060089,1050.631592 187.050140,1051.117065 189.033920,1051.626953 
	C190.092651,1051.899048 191.140503,1052.213257 193.121552,1052.768799 
	C187.346298,1055.872437 183.189941,1055.455200 180.260803,1052.236206 
	C177.151260,1048.819092 176.950287,1042.041138 179.847778,1038.308350 
	C182.668518,1034.674438 186.621643,1034.048828 192.791367,1036.789795 
	C191.451157,1037.607422 190.557877,1038.628540 189.689575,1038.607666 
	C181.782150,1038.418335 179.670639,1041.561157 182.805817,1049.816406 
z"/>
<path fill="#DFDFE3" opacity="1.000000" stroke="none" 
	d="
M59.976929,1046.057373 
	C57.532703,1046.060059 55.545147,1046.060059 53.559601,1046.060059 
	C53.500900,1052.673218 56.718613,1054.251953 65.807556,1052.223877 
	C63.314926,1056.346436 55.893322,1056.249146 52.928173,1051.673096 
	C51.591965,1049.610840 50.982731,1046.745850 50.955593,1044.235229 
	C50.895901,1038.712769 54.629295,1034.826294 59.206867,1034.953003 
	C63.893848,1035.082520 66.244019,1038.602295 66.236473,1046.054565 
	C64.307686,1046.054565 62.370644,1046.054565 59.976929,1046.057373 
M53.162899,1042.112427 
	C53.777348,1042.786621 54.353443,1043.995972 55.012817,1044.043213 
	C57.964104,1044.254761 60.939129,1044.135254 63.905586,1044.135254 
	C64.255348,1043.739136 64.605110,1043.342896 64.954872,1042.946777 
	C63.405159,1040.981323 62.241798,1038.145630 60.218338,1037.247437 
	C56.899963,1035.774414 54.702473,1038.251221 53.162899,1042.112427 
z"/>
<path fill="#DFDFE3" opacity="1.000000" stroke="none" 
	d="
M103.995880,1055.054443 
	C95.602493,1053.490356 92.147591,1044.860107 96.943558,1038.412476 
	C99.287781,1035.260986 102.561554,1034.322388 106.204430,1035.179932 
	C110.184616,1036.117065 112.308990,1039.080444 112.876747,1042.961304 
	C113.510765,1047.295044 112.637642,1051.294678 108.604218,1053.796509 
	C107.405624,1054.539917 105.814880,1054.651123 103.995880,1055.054443 
M110.800438,1043.014404 
	C110.641457,1042.543213 110.489120,1042.069702 110.322495,1041.601196 
	C108.804726,1037.334229 105.606682,1036.173706 101.576050,1037.284790 
	C98.196159,1038.216309 96.280334,1043.106201 97.290596,1047.397705 
	C98.284363,1051.619019 101.264061,1053.834961 105.285164,1052.994019 
	C110.280502,1051.949341 110.997391,1048.078613 110.800438,1043.014404 
z"/>
<path fill="#FEFFFE" opacity="1.000000" stroke="none" 
	d="
M147.778503,1046.689453 
	C147.781219,1041.397827 147.687225,1036.566650 147.864044,1031.745361 
	C147.902313,1030.701416 148.913742,1029.693359 149.476944,1028.668701 
	C149.952942,1028.852905 150.428925,1029.036987 150.904907,1029.221069 
	C150.996384,1030.975098 151.087875,1032.729248 151.175644,1034.412231 
	C152.892120,1034.961914 154.452744,1035.461792 156.013351,1035.961548 
	C155.945450,1036.419434 155.877548,1036.877197 155.809647,1037.335083 
	C154.338776,1037.666748 152.867889,1037.998413 150.856537,1038.451904 
	C152.561966,1043.187866 147.362640,1050.015381 156.076248,1053.624878 
	C154.818375,1053.946411 153.426971,1054.781494 152.327042,1054.495483 
	C148.656586,1053.541138 147.652328,1050.626587 147.778503,1046.689453 
z"/>
<path fill="#DFDFE3" opacity="1.000000" stroke="none" 
	d="
M876.024536,1047.930664 
	C877.381042,1040.821899 879.475159,1039.177734 884.707153,1041.119873 
	C882.657837,1042.078491 880.796265,1042.949341 878.934631,1043.820068 
	C879.011292,1044.144043 879.087952,1044.468018 879.164612,1044.791992 
	C879.853821,1044.850464 880.756714,1044.651611 881.193420,1045.014282 
	C882.690735,1046.257202 884.834351,1047.525879 885.170471,1049.114868 
	C885.450867,1050.440186 883.583740,1053.504517 882.588928,1053.539185 
	C880.695435,1053.605347 878.641357,1052.220825 876.875854,1051.091675 
	C876.257202,1050.696045 876.290466,1049.281128 876.024536,1047.930664 
z"/>
<path fill="#D7D8DD" opacity="1.000000" stroke="none" 
	d="
M75.621170,1037.333618 
	C70.935440,1040.432251 70.513092,1044.606934 72.181763,1048.970459 
	C74.332298,1054.594238 79.344971,1053.018433 84.068695,1052.525391 
	C81.078682,1055.658936 76.121674,1055.875977 72.889221,1053.413086 
	C68.902992,1050.375977 67.951469,1043.382935 70.910889,1038.874390 
	C73.691429,1034.638428 78.331787,1033.785889 84.469948,1037.185791 
	C80.945305,1037.185791 78.471680,1037.185791 75.621170,1037.333618 
z"/>
<path fill="#D7D8DD" opacity="1.000000" stroke="none" 
	d="
M852.038452,1048.900879 
	C851.357849,1047.712280 850.686584,1047.003174 850.015381,1046.294067 
	C849.339050,1047.141479 848.317871,1047.897461 848.063538,1048.856934 
	C847.633606,1050.478516 847.688904,1052.228760 846.340454,1054.021851 
	C845.935791,1051.376831 845.531128,1048.731689 845.126465,1046.086548 
	C844.517456,1045.976929 843.908447,1045.867310 843.299438,1045.757690 
	C842.317932,1048.503418 841.336426,1051.249268 840.354858,1053.995117 
	C840.166199,1053.985596 839.977478,1053.975952 839.788757,1053.966309 
	C839.788757,1050.850464 839.788757,1047.734619 839.788757,1044.697754 
	C843.255066,1044.478760 846.880615,1044.012695 850.482178,1044.154907 
	C851.691040,1044.202637 853.604187,1045.624756 853.855408,1046.724731 
	C854.380615,1049.024292 854.014465,1051.527466 854.014465,1053.947021 
	C853.521057,1053.992188 853.027710,1054.037354 852.534302,1054.082642 
	C852.372131,1052.515259 852.209900,1050.947876 852.038452,1048.900879 
z"/>
<path fill="#D7D8DD" opacity="1.000000" stroke="none" 
	d="
M89.443794,1042.979248 
	C90.128502,1047.040649 90.808907,1050.626953 91.575714,1054.668701 
	C90.527992,1053.641968 88.073807,1052.371704 87.997711,1050.972046 
	C87.602501,1043.703125 87.813744,1036.401245 87.813744,1029.110840 
	C88.219597,1029.056519 88.625458,1029.002197 89.031311,1028.947998 
	C89.225128,1030.647217 89.418938,1032.346436 89.664322,1034.497803 
	C90.663940,1034.754272 91.836662,1035.055176 91.981735,1035.092407 
	C91.102531,1037.655640 90.271011,1040.079956 89.443794,1042.979248 
z"/>
<path fill="#EBEBED" opacity="1.000000" stroke="none" 
	d="
M873.521484,1050.574707 
	C872.578369,1051.852539 871.912659,1052.833496 871.708252,1053.134644 
	C869.151917,1052.128174 866.681580,1051.155518 863.406616,1049.865967 
	C865.583984,1046.610474 867.964783,1043.050903 870.791138,1038.825073 
	C872.027344,1043.532104 872.913147,1046.904907 873.521484,1050.574707 
z"/>
<path fill="#E6E8EB" opacity="1.000000" stroke="none" 
	d="
M938.282471,1051.162598 
	C940.318909,1050.772339 941.964905,1050.365723 943.610962,1049.959106 
	C941.936523,1048.637939 940.262085,1047.316772 937.733643,1045.321655 
	C937.772278,1044.626587 937.889099,1042.524170 938.003113,1040.473022 
	C940.403809,1040.473022 942.661255,1040.473022 944.918762,1040.473022 
	C944.938904,1040.727051 944.959045,1040.981201 944.979248,1041.235229 
	C943.111755,1041.922485 941.244324,1042.609619 940.438232,1042.906250 
	C942.545715,1045.736084 944.523376,1047.774170 945.540588,1050.212891 
	C945.780090,1050.787231 942.933899,1053.061890 941.188354,1053.822510 
	C940.591736,1054.082520 939.018921,1052.102783 938.282471,1051.162598 
z"/>
<path fill="#D7D8DD" opacity="1.000000" stroke="none" 
	d="
M804.276489,1041.561157 
	C804.288086,1043.536133 804.288086,1045.101074 804.288086,1047.406860 
	C806.458984,1045.776978 807.807922,1044.764282 808.622864,1044.152344 
	C808.856201,1047.281494 809.089722,1050.411987 809.365540,1054.110596 
	C808.089844,1052.617065 806.713562,1051.005737 804.919495,1048.905396 
	C804.510559,1050.782837 804.175659,1052.320190 803.840820,1053.857666 
	C803.399475,1053.875122 802.958130,1053.892578 802.516785,1053.910034 
	C802.516785,1049.410400 802.516785,1044.910645 802.516785,1040.410889 
	C803.099487,1040.657593 803.682129,1040.904297 804.276489,1041.561157 
z"/>
<path fill="#DFDFE3" opacity="1.000000" stroke="none" 
	d="
M922.281738,1047.777344 
	C921.142517,1047.293701 920.373596,1047.016724 919.374878,1046.657104 
	C920.309448,1045.172729 921.155945,1043.828247 922.065430,1042.383667 
	C920.361145,1042.105713 918.815735,1041.853638 917.270325,1041.601685 
	C917.261108,1041.182983 917.251953,1040.764404 917.242737,1040.345825 
	C919.868896,1040.192627 922.495056,1040.039307 926.179688,1039.824341 
	C924.630066,1042.148682 923.665222,1043.595703 922.516174,1045.319214 
	C925.157715,1047.159790 927.378906,1049.561646 924.343628,1052.615845 
	C921.741272,1055.234375 919.160034,1054.227783 916.752319,1051.882324 
	C918.637695,1049.802368 924.705322,1055.321777 922.281738,1047.777344 
z"/>
<path fill="#D7D8DD" opacity="1.000000" stroke="none" 
	d="
M705.748047,1041.393433 
	C706.772766,1044.354492 707.646240,1046.964600 708.868530,1050.617310 
	C710.588806,1046.320923 711.911011,1043.018799 713.233215,1039.716553 
	C713.760193,1039.938477 714.287231,1040.160522 714.814270,1040.382446 
	C713.160461,1045.026001 711.506653,1049.669678 709.852783,1054.313354 
	C709.298279,1054.313965 708.743774,1054.314697 708.189270,1054.315430 
	C706.512573,1049.694946 704.835815,1045.074585 702.707642,1039.210327 
	C704.430420,1040.302856 705.013611,1040.672607 705.748047,1041.393433 
z"/>
<path fill="#DFDFE3" opacity="1.000000" stroke="none" 
	d="
M768.525269,1046.471680 
	C771.677429,1048.064697 772.576782,1050.443237 770.387085,1052.639893 
	C767.959961,1055.074707 765.163635,1054.664673 762.948547,1051.592041 
	C763.505798,1051.332275 763.788208,1051.096191 764.082214,1051.080811 
	C765.725586,1050.994751 767.371887,1050.962036 769.017151,1050.911133 
	C767.974548,1049.701294 766.907227,1048.511841 765.896484,1047.276001 
	C764.912537,1046.072632 763.194458,1044.781982 763.254028,1043.603149 
	C763.315491,1042.384399 764.953918,1040.593018 766.220764,1040.258789 
	C767.685730,1039.872437 769.498108,1040.803101 770.889343,1042.255249 
	C769.002686,1042.425537 767.115967,1042.595703 765.229309,1042.765991 
	C765.105774,1043.222656 764.982300,1043.679321 764.858765,1044.135986 
	C765.977844,1044.850586 767.096924,1045.565186 768.525269,1046.471680 
z"/>
<path fill="#DFDFE3" opacity="1.000000" stroke="none" 
	d="
M897.863342,1041.624878 
	C900.307495,1041.355103 903.829041,1040.519531 904.555908,1041.587036 
	C908.135620,1046.843994 901.462341,1047.962280 899.470398,1051.583496 
	C901.886169,1051.854248 903.875549,1052.077148 905.864929,1052.300049 
	C905.873657,1052.759521 905.882385,1053.219116 905.891113,1053.678589 
	C903.041626,1053.836548 900.192139,1053.994385 895.550781,1054.251587 
	C897.768188,1051.270752 899.154907,1049.489258 900.447388,1047.641724 
	C901.404114,1046.274292 902.238159,1044.821045 903.126831,1043.406006 
	C901.570557,1043.333984 900.013062,1043.280518 898.459167,1043.174072 
	C898.156982,1043.153442 897.775757,1042.997803 897.604736,1042.772461 
	C897.476440,1042.603394 897.626343,1042.222778 897.863342,1041.624878 
z"/>
<path fill="#EFEFF1" opacity="1.000000" stroke="none" 
	d="
M723.659790,1045.282715 
	C724.263855,1046.479004 724.584167,1047.396606 725.046509,1048.720947 
	C722.545044,1048.913696 720.365601,1049.081787 718.186096,1049.249878 
	C718.088928,1049.744263 717.991699,1050.238647 717.894531,1050.733032 
	C719.893921,1051.164673 721.893311,1051.596436 723.892700,1052.028076 
	C723.893982,1052.393311 723.895325,1052.758545 723.896667,1053.123779 
	C721.994202,1053.153931 719.214600,1053.966675 718.386230,1053.038452 
	C716.997620,1051.482178 715.810059,1048.459473 716.413818,1046.696289 
	C717.476624,1043.592285 720.434082,1043.114258 723.659790,1045.282715 
z"/>
<path fill="#E6E8EB" opacity="1.000000" stroke="none" 
	d="
M780.328308,1046.653320 
	C782.615845,1043.695190 785.380676,1042.904785 787.847839,1045.083618 
	C789.142944,1046.227417 790.123413,1049.070435 789.595459,1050.561523 
	C789.056702,1052.083008 786.502747,1053.812622 784.818115,1053.825928 
	C780.533936,1053.860229 779.252441,1050.969604 780.328308,1046.653320 
M783.090027,1051.350098 
	C784.658203,1050.990479 786.290100,1050.774536 787.734558,1050.135254 
	C787.987671,1050.023315 787.820557,1047.677490 787.195496,1047.175903 
	C786.331665,1046.482788 784.005249,1046.041382 783.783508,1046.401733 
	C782.995544,1047.682495 782.834351,1049.349121 783.090027,1051.350098 
z"/>
<path fill="#E6E8EB" opacity="1.000000" stroke="none" 
	d="
M836.094788,1051.949463 
	C833.432007,1054.551392 830.567810,1054.967651 828.440491,1052.468872 
	C827.324524,1051.158081 826.744995,1047.987915 827.569092,1046.784058 
	C828.594116,1045.286499 831.533081,1043.952759 833.266296,1044.322998 
	C836.988281,1045.118164 838.033203,1048.028809 836.094788,1051.949463 
M829.040955,1047.817383 
	C828.428650,1050.592407 829.677490,1052.216064 832.356140,1051.747314 
	C833.396301,1051.565308 835.058044,1049.288208 834.812744,1048.428955 
	C833.956604,1045.429688 831.748108,1045.478760 829.040955,1047.817383 
z"/>
<path fill="#E6E8EB" opacity="1.000000" stroke="none" 
	d="
M751.273682,1044.539307 
	C754.508850,1046.686035 755.183899,1049.503784 752.919800,1051.868652 
	C751.658997,1053.185425 748.279541,1054.107422 746.973267,1053.329346 
	C745.377930,1052.379272 743.930847,1049.281860 744.251953,1047.430786 
	C744.817322,1044.171387 747.783630,1043.434448 751.273682,1044.539307 
M750.798950,1051.345581 
	C750.963806,1049.912964 751.658142,1048.202637 751.104431,1047.146851 
	C750.744690,1046.461060 748.466125,1046.372070 747.241821,1046.713135 
	C746.578979,1046.897949 745.762512,1049.245483 745.977539,1049.417847 
	C747.201416,1050.399902 748.715332,1051.020386 750.798950,1051.345581 
z"/>
<path fill="#E6E8EB" opacity="1.000000" stroke="none" 
	d="
M123.467957,1035.482544 
	C117.565071,1038.730591 117.287903,1044.112549 117.910233,1049.948608 
	C118.085495,1051.592285 117.763000,1053.288940 117.668823,1054.961304 
	C117.254349,1054.937622 116.839874,1054.913818 116.425400,1054.890137 
	C116.425400,1048.357788 116.425400,1041.825439 116.425400,1036.288940 
	C118.863808,1035.910767 121.024803,1035.575439 123.467957,1035.482544 
z"/>
<path fill="#E6E8EB" opacity="1.000000" stroke="none" 
	d="
M889.716125,1049.668945 
	C890.916077,1047.104858 891.954041,1044.881592 893.172424,1042.272095 
	C890.769348,1042.077881 888.718079,1041.911987 886.666809,1041.746216 
	C886.697510,1041.309937 886.728149,1040.873779 886.758789,1040.437500 
	C889.672668,1040.437500 892.586548,1040.437500 896.157654,1040.437500 
	C893.834839,1045.285645 891.644714,1049.856812 889.454529,1054.428101 
	C888.968750,1054.201538 888.482910,1053.975098 887.997070,1053.748535 
	C888.516113,1052.502319 889.035095,1051.255981 889.716125,1049.668945 
z"/>
<path fill="#EFEFF1" opacity="1.000000" stroke="none" 
	d="
M928.816589,1042.410645 
	C930.001770,1041.336304 930.980896,1040.561890 932.165833,1039.624512 
	C932.968994,1044.602051 933.691101,1049.077393 934.437561,1053.703857 
	C933.243347,1053.703857 930.701660,1053.703857 928.023010,1053.703857 
	C931.915100,1049.725464 932.110962,1045.052002 928.816589,1042.410645 
z"/>
<path fill="#DFDFE3" opacity="1.000000" stroke="none" 
	d="
M817.708130,1052.047852 
	C818.004700,1049.399658 817.981812,1046.619507 819.325195,1044.917725 
	C820.089783,1043.949097 823.086731,1044.742554 825.543274,1044.742554 
	C822.734314,1046.552734 820.835266,1047.776611 818.936218,1049.000488 
	C820.857666,1050.230103 822.779053,1051.459717 824.940002,1052.842529 
	C823.035828,1054.735596 820.575012,1054.661255 817.708130,1052.047852 
z"/>
<path fill="#DFDFE3" opacity="1.000000" stroke="none" 
	d="
M800.055969,1051.563721 
	C798.374573,1055.407593 795.239746,1054.734741 793.530884,1052.553467 
	C792.341858,1051.035767 792.372375,1047.546021 793.299194,1045.636719 
	C794.543762,1043.072998 797.319946,1043.515503 799.210876,1045.302979 
	C797.510620,1046.571167 794.183716,1047.953979 794.223877,1049.231079 
	C794.338928,1052.885376 797.418091,1051.909546 800.055969,1051.563721 
z"/>
<path fill="#262734" opacity="1.000000" stroke="none" 
	d="
M217.001984,1029.806885 
	C218.724640,1031.565308 220.129425,1033.362061 222.193649,1036.002075 
	C219.553253,1036.644531 217.331085,1037.185181 215.108917,1037.725952 
	C214.462799,1034.898804 213.816681,1032.071655 212.985611,1028.435181 
	C214.804779,1029.128662 215.744431,1029.486938 217.001984,1029.806885 
M216.817749,1033.251099 
	C216.687180,1033.168701 216.553909,1033.019897 216.426941,1033.025146 
	C216.330765,1033.029053 216.147934,1033.247681 216.165817,1033.338989 
	C216.309631,1034.073242 216.491959,1034.800049 216.662506,1035.529053 
	C216.894714,1035.470703 217.126938,1035.412231 217.359146,1035.353882 
	C217.232666,1034.809448 217.106171,1034.265015 216.817749,1033.251099 
z"/>
<path fill="#DFDFE3" opacity="1.000000" stroke="none" 
	d="
M729.623230,1044.455444 
	C731.698059,1044.435425 733.428284,1044.622681 735.052246,1044.798584 
	C732.644165,1046.632080 730.796082,1048.039185 728.947937,1049.446289 
	C730.926941,1050.467773 732.905884,1051.489380 735.090576,1052.617065 
	C733.286438,1054.760132 730.619202,1054.842285 728.405762,1052.635986 
	C725.713379,1049.952515 726.078369,1047.005859 729.623230,1044.455444 
z"/>
<path fill="#EFEFF1" opacity="1.000000" stroke="none" 
	d="
M914.559387,1053.982056 
	C912.102966,1054.023071 910.082397,1054.023071 908.061768,1054.023071 
	C912.977112,1051.192871 910.327820,1047.022095 911.027161,1043.771484 
	C910.011475,1043.716797 909.183472,1043.672241 907.512207,1043.582275 
	C909.368286,1041.922852 910.621643,1040.802368 912.959045,1038.712646 
	C912.959045,1042.032959 912.924011,1043.933838 912.967407,1045.832764 
	C913.029175,1048.536133 911.970337,1051.709106 915.792786,1052.921509 
	C915.526917,1053.261353 915.261047,1053.601196 914.559387,1053.982056 
z"/>
<path fill="#D7D8DD" opacity="1.000000" stroke="none" 
	d="
M756.270386,1051.524170 
	C756.269287,1048.962402 756.269287,1046.827759 756.269287,1044.565186 
	C758.316284,1044.464355 760.011108,1044.380981 761.269592,1044.319092 
	C759.917786,1047.493896 758.612732,1050.558838 757.189514,1053.901489 
	C756.923401,1053.336182 756.597412,1052.643799 756.270386,1051.524170 
z"/>
<path fill="#E6E8EB" opacity="1.000000" stroke="none" 
	d="
M775.969421,1043.297852 
	C776.713562,1044.239624 777.319824,1044.811157 777.926025,1045.382690 
	C773.673401,1048.110962 776.329712,1050.799927 778.686218,1053.856812 
	C777.381348,1053.856812 776.693909,1054.056274 776.216736,1053.823853 
	C773.506287,1052.503906 772.185486,1044.259155 774.376465,1042.286133 
	C774.538025,1042.140625 775.331726,1042.697266 775.969421,1043.297852 
z"/>
<path fill="#E6E8EB" opacity="1.000000" stroke="none" 
	d="
M739.898682,1047.281738 
	C740.413940,1049.564697 740.960388,1051.424072 741.736328,1054.064209 
	C740.631836,1053.584717 738.711548,1053.274414 738.576721,1052.604614 
	C737.890381,1049.196411 737.666260,1045.695068 737.280334,1042.226318 
	C737.766907,1042.146484 738.253418,1042.066650 738.739929,1041.986816 
	C739.854187,1042.954102 740.968384,1043.921509 742.312134,1045.088135 
	C741.361511,1045.794312 740.645691,1046.326050 739.898682,1047.281738 
z"/>
<path fill="#262734" opacity="1.000000" stroke="none" 
	d="
M219.541779,1027.562134 
	C219.473892,1027.605225 219.609650,1027.519043 219.541779,1027.562134 
z"/>
<path fill="#161728" opacity="1.000000" stroke="none" 
	d="
M170.270538,1050.201172 
	C166.865250,1052.850098 164.106857,1052.458008 162.015976,1049.140747 
	C159.961349,1045.881104 160.985718,1040.588501 163.836731,1038.815674 
	C166.700256,1037.035156 170.524963,1038.272461 171.256760,1041.849121 
	C171.774826,1044.381226 170.829895,1047.212891 170.270538,1050.201172 
z"/>
<path fill="#161728" opacity="1.000000" stroke="none" 
	d="
M53.304993,1041.721191 
	C54.702473,1038.251221 56.899963,1035.774414 60.218338,1037.247437 
	C62.241798,1038.145630 63.405159,1040.981323 64.954872,1042.946777 
	C64.605110,1043.342896 64.255348,1043.739136 63.905586,1044.135254 
	C60.939129,1044.135254 57.964104,1044.254761 55.012817,1044.043213 
	C54.353443,1043.995972 53.777348,1042.786621 53.304993,1041.721191 
z"/>
<path fill="#161728" opacity="1.000000" stroke="none" 
	d="
M110.847878,1043.411255 
	C110.997391,1048.078613 110.280502,1051.949341 105.285164,1052.994019 
	C101.264061,1053.834961 98.284363,1051.619019 97.290596,1047.397705 
	C96.280334,1043.106201 98.196159,1038.216309 101.576050,1037.284790 
	C105.606682,1036.173706 108.804726,1037.334229 110.322495,1041.601196 
	C110.489120,1042.069702 110.641457,1042.543213 110.847878,1043.411255 
z"/>
<path fill="#262734" opacity="1.000000" stroke="none" 
	d="
M782.762939,1051.109863 
	C782.834351,1049.349121 782.995544,1047.682495 783.783508,1046.401733 
	C784.005249,1046.041382 786.331665,1046.482788 787.195496,1047.175903 
	C787.820557,1047.677490 787.987671,1050.023315 787.734558,1050.135254 
	C786.290100,1050.774536 784.658203,1050.990479 782.762939,1051.109863 
z"/>
<path fill="#262734" opacity="1.000000" stroke="none" 
	d="
M829.235901,1047.471924 
	C831.748108,1045.478760 833.956604,1045.429688 834.812744,1048.428955 
	C835.058044,1049.288208 833.396301,1051.565308 832.356140,1051.747314 
	C829.677490,1052.216064 828.428650,1050.592407 829.235901,1047.471924 
z"/>
<path fill="#262734" opacity="1.000000" stroke="none" 
	d="
M750.464783,1051.554688 
	C748.715332,1051.020386 747.201416,1050.399902 745.977539,1049.417847 
	C745.762512,1049.245483 746.578979,1046.897949 747.241821,1046.713135 
	C748.466125,1046.372070 750.744690,1046.461060 751.104431,1047.146851 
	C751.658142,1048.202637 750.963806,1049.912964 750.464783,1051.554688 
z"/>
<path fill="#121324" opacity="1.000000" stroke="none" 
	d="
M216.898712,1033.485840 
	C217.106171,1034.265015 217.232666,1034.809448 217.359146,1035.353882 
	C217.126938,1035.412231 216.894714,1035.470703 216.662506,1035.529053 
	C216.491959,1034.800049 216.309631,1034.073242 216.165817,1033.338989 
	C216.147934,1033.247681 216.330765,1033.029053 216.426941,1033.025146 
	C216.553909,1033.019897 216.687180,1033.168701 216.898712,1033.485840 
z"/>
</svg>